<svg width="273" height="179" viewBox="0 0 273 179" fill="none" xmlns="http://www.w3.org/2000/svg">
<path d="M27.2574 113.158C27.5146 105.082 29.2328 97.144 29.2328 89.035C29.2328 85.4943 31.3008 71.4668 26.2697 69.9938C23.9003 69.3001 21.3312 72.8578 20.3068 74.2406C15.4687 80.7716 12.6854 88.7769 10.3565 96.3799C6.32223 109.55 3.52504 122.866 2.345 136.551C1.69141 144.131 -1.22708 157.427 4.35702 164.121C14.0372 175.725 31.2977 145.321 34.5007 140.276C42.3654 127.886 49.0157 114.886 56.2304 102.158C59.9046 95.677 64.3458 89.7753 68.3025 83.5002C70.5245 79.9762 66.8524 81.161 64.6443 82.5951C54.9698 88.8785 44.6965 93.9162 34.5007 99.3736" stroke="white" stroke-linecap="round"/>
<path d="M73.351 119.424C73.351 117.547 75.7596 109.512 72.5462 109.399C65.9553 109.167 49.9405 130.794 56.5232 133.557C58.6597 134.454 62.5097 130.879 63.8396 129.798C68.0279 126.393 71.5346 121.771 74.5216 117.405C77.2672 113.392 79.8916 109.121 81.7648 104.665C83.1611 101.343 82.5992 105.08 82.5696 106.684C82.4781 111.646 81.5579 116.572 81.1064 121.513C80.9762 122.937 79.6968 127.385 82.2038 124.646C90.574 115.501 97.7894 107.781 109.567 102.507" stroke="white" stroke-linecap="round"/>
<path d="M75.9846 34.8356C75.9846 42.3981 78.8172 50.6101 80.2281 58.0192C84.2452 79.1138 89.2219 100.036 92.5929 121.235C94.5271 133.398 96.8502 145.521 99.0313 157.646C99.7105 161.422 101.007 165.075 101.007 168.925" stroke="white" stroke-linecap="round"/>
<path d="M75.9846 101.253C77.7643 101.084 79.308 99.6249 80.9964 99.0604C87.3636 96.9317 93.7618 94.73 100.056 92.4117C106.467 90.0501 112.403 86.8458 118.493 83.8484C120.399 82.9105 122.509 80.9674 120.468 83.9876C110.538 98.6874 101.686 113.782 92.9221 129.136C90.1796 133.942 86.74 138.386 84.5448 143.443C83.7316 145.317 83.9061 144.754 84.5448 143.235" stroke="white" stroke-linecap="round"/>
<path d="M114.835 74.9369C114.835 78.5336 114.868 82.1316 114.835 85.7281C114.766 93.2168 112.791 100.462 112.201 107.902C111.841 112.439 110.108 122.103 117.432 115.909C122.919 111.268 127.68 105.869 132.833 100.905C138.377 95.5653 143.742 92.8272 151.051 90.6015" stroke="white" stroke-linecap="round"/>
<path d="M114.176 51.7533C114.176 56.353 113.518 70.1378 113.518 65.5381" stroke="white" stroke-linecap="round"/>
<path d="M150.393 1C150.393 20.8833 150.712 40.7902 150.063 60.6647C149.417 80.479 150.393 100.309 150.393 120.051" stroke="white" stroke-linecap="round"/>
<path d="M165.538 58.6458C165.312 60.7969 162.906 62.3805 161.441 63.7977C157.298 67.8045 153.13 71.7457 148.93 75.7028C144.001 80.3455 139.01 84.9206 134.077 89.5572C132.853 90.7077 128.297 93.4795 128.297 95.475C128.297 95.7681 129.467 94.9883 129.468 94.9876C130.495 94.4292 131.602 94.3785 132.76 94.361C138.415 94.2756 143.339 95.5802 148.564 97.6332C155.843 100.493 162.607 104 168.903 108.494C170.562 109.678 172.131 111.282 174.098 111.905" stroke="white" stroke-linecap="round"/>
<path d="M166.196 74.3103C162.392 74.7126 160.596 91.9429 171.464 87.7123C176.98 85.5651 183.362 79.3708 181.853 73.1964C180.609 68.1043 167.588 71.9655 164.879 73.6837" stroke="white" stroke-linecap="round"/>
<path d="M182 53.0064C182.452 58.4647 185.007 64.3106 186.463 69.6457C187.555 73.6487 188.458 78.1069 189.901 81.9685C190.03 82.3142 190.52 84.2825 190.596 83.8135C191.044 81.0437 191.17 78.288 191.365 75.4938C192.056 65.5675 194.676 55.8714 196.486 46.114" stroke="white" stroke-linecap="round"/>
<path d="M41.3406 178.076C69.2278 157.226 99.3961 138.831 129.026 120.259C175.514 91.1204 222.184 63.6736 272 39.9722" stroke="white" stroke-linecap="round"/>
</svg>
